<svg xmlns="http://www.w3.org/2000/svg" xmlns:xlink="http://www.w3.org/1999/xlink" width="500" zoomAndPan="magnify" viewBox="0 0 375 374.999991" height="500" preserveAspectRatio="xMidYMid meet" version="1.0"><defs><clipPath id="5c1afb0526"><path d="M 112.5 130 L 262.5 130 L 262.5 245.277344 L 112.5 245.277344 Z M 112.5 130 " clip-rule="nonzero"/></clipPath></defs><rect x="-37.5" width="450" fill="#ffffff" y="-37.499999" height="449.999989" fill-opacity="1"/><rect x="-37.5" width="450" fill="#ffffff" y="-37.499999" height="449.999989" fill-opacity="1"/><g clip-path="url(#5c1afb0526)"><path fill="#7239ea" d="M 252.167969 176.78125 L 252.167969 164.195312 C 252.167969 158.957031 247.882812 154.671875 242.644531 154.671875 L 157.261719 154.671875 L 218.375 148.003906 L 218.375 136.914062 C 218.375 134.730469 217.433594 132.851562 215.679688 131.546875 C 213.925781 130.246094 211.855469 129.882812 209.761719 130.511719 L 134.242188 153.238281 C 131.371094 154.101562 129.484375 156.644531 129.484375 159.640625 L 129.484375 181.199219 L 155.144531 181.199219 C 159.539062 181.199219 163.136719 184.796875 163.136719 189.191406 C 163.136719 193.589844 159.539062 197.183594 155.144531 197.183594 L 120.492188 197.183594 C 116.097656 197.1875 112.5 200.785156 112.5 205.179688 C 112.5 209.574219 116.097656 213.171875 120.492188 213.171875 L 177.726562 213.171875 C 182.125 213.171875 185.722656 216.769531 185.722656 221.167969 C 185.722656 225.5625 182.125 229.160156 177.726562 229.160156 L 154.445312 229.160156 C 150.046875 229.160156 146.453125 232.757812 146.453125 237.152344 C 146.453125 241.550781 150.050781 245.144531 154.445312 245.144531 L 242.640625 245.144531 C 247.878906 245.144531 252.164062 240.859375 252.164062 235.621094 L 252.164062 223.039062 L 234.5 223.039062 C 232.941406 223.039062 231.664062 221.761719 231.664062 220.203125 C 231.664062 218.644531 232.941406 217.371094 234.5 217.371094 L 257.101562 217.371094 C 260.078125 217.371094 262.503906 214.941406 262.503906 211.96875 L 262.503906 187.851562 C 262.503906 184.875 260.078125 182.449219 257.101562 182.449219 L 224.707031 182.449219 C 223.144531 182.449219 221.871094 181.175781 221.871094 179.613281 C 221.871094 178.054688 223.144531 176.777344 224.707031 176.777344 L 252.167969 176.777344 Z M 223.84375 194.953125 C 221.101562 194.953125 218.882812 197.171875 218.882812 199.914062 C 218.882812 202.652344 221.101562 204.875 223.84375 204.875 C 226.582031 204.875 228.804688 202.652344 228.804688 199.914062 C 228.804688 197.171875 226.582031 194.953125 223.84375 194.953125 Z M 212.050781 199.910156 C 212.050781 193.425781 217.355469 188.117188 223.84375 188.117188 L 256.839844 188.117188 L 256.839844 211.703125 L 223.84375 211.703125 C 217.359375 211.703125 212.050781 206.398438 212.050781 199.910156 Z M 212.050781 199.910156 " fill-opacity="1" fill-rule="evenodd"/></g></svg>